<?xml version="1.0" encoding="UTF-8"?> <svg xmlns="http://www.w3.org/2000/svg" xmlns:xlink="http://www.w3.org/1999/xlink" id="Courier_Partners_14_Courier_Partners" data-name="Courier Partners | 14+ Courier Partners" width="48" height="48" viewBox="0 0 48 48"><defs><clipPath id="clip-path"><rect id="Rectangle_9" data-name="Rectangle 9" width="32.384" height="48" fill="none"></rect></clipPath></defs><rect id="Rectangle_76" data-name="Rectangle 76" width="48" height="48" transform="translate(0 0)" fill="none"></rect><g id="Group_225" data-name="Group 225" transform="translate(8)"><g id="Group_22" data-name="Group 22" clip-path="url(#clip-path)"><path id="Path_230" data-name="Path 230" d="M12.066,6.265a26.406,26.406,0,0,1,12.611,0h.168a.685.685,0,0,0,.546-.2.728.728,0,0,0,.168-.686,7.454,7.454,0,0,0-14.32,0,.7.7,0,0,0,.841.882Z" transform="translate(-2.184 0)" fill="#7f6bf6"></path><path id="Path_231" data-name="Path 231" d="M9.916,13.364h.168l5.535-.644a20.349,20.349,0,0,1,4.526,0l5.535.616a1.249,1.249,0,0,0,1.275-.659,1.233,1.233,0,0,0-.1-1.4l-1.118-1.5a.715.715,0,0,0-.349-.253,25.32,25.32,0,0,0-14.993,0,.717.717,0,0,0-.349.253L8.927,11.32a1.247,1.247,0,0,0-.085,1.4,1.22,1.22,0,0,0,1.079.644Z" transform="translate(-1.689 -1.635)" fill="#7f6bf6"></path><path id="Path_232" data-name="Path 232" d="M20.476,15.36a19.617,19.617,0,0,0-4.2,0l-4.624.5a.684.684,0,0,0-.477.266.742.742,0,0,0-.154.519,7.412,7.412,0,0,0,14.74,0,.742.742,0,0,0-.154-.519.686.686,0,0,0-.477-.266Z" transform="translate(-2.147 -2.971)" fill="#7f6bf6"></path><path id="Path_233" data-name="Path 233" d="M31.18,48.21a4.745,4.745,0,0,1-3.563,1.609H5.534a.935.935,0,0,1-.139.012H4.75a4.742,4.742,0,0,1-3.557-1.61A4.838,4.838,0,0,1,.031,44.5l1.035-8.41c.523-4.143,2.888-7.427,5.9-8.153h.093a38.757,38.757,0,0,1,18.219,0h.18c2.969.714,5.34,3.934,5.857,8.142l1.035,8.4A4.829,4.829,0,0,1,31.18,48.21" transform="translate(0 -5.231)" fill="#abffc7"></path><path id="Path_234" data-name="Path 234" d="M21.669,41.412v3.51a.292.292,0,0,1-.291.291h-3.51a.3.3,0,0,1-.29-.291v-3.51a.291.291,0,0,1,.29-.291h3.51a.288.288,0,0,1,.291.291" transform="translate(-3.425 -8.012)" fill="#5b3deb"></path><path id="Path_235" data-name="Path 235" d="M26.787,55.38v2.714a.7.7,0,0,1-.7.7H9.893a.7.7,0,0,1-.7-.7V55.38Z" transform="translate(-1.791 -10.791)" fill="#7f6bf6"></path><path id="Path_236" data-name="Path 236" d="M26.787,45.872V52.6H9.19V45.872a4.751,4.751,0,0,1,4.754-4.748.7.7,0,0,1,.7.7v4.051a.659.659,0,0,0,.646.645H20.7a.659.659,0,0,0,.645-.645V41.821a.7.7,0,0,1,.7-.7,4.746,4.746,0,0,1,4.748,4.748" transform="translate(-1.791 -8.013)" fill="#5b3deb"></path></g></g></svg> 