<?xml version="1.0" encoding="UTF-8"?> <svg xmlns="http://www.w3.org/2000/svg" xmlns:xlink="http://www.w3.org/1999/xlink" id="On-time_delivery" data-name="On-time delivery" width="47.117" height="47.991" viewBox="0 0 47.117 47.991"><defs><clipPath id="clip-path"><rect id="Rectangle_98" data-name="Rectangle 98" width="46.617" height="47.991" fill="none"></rect></clipPath></defs><rect id="Rectangle_76" data-name="Rectangle 76" width="47.117" height="47.101" transform="translate(0 0)" fill="none"></rect><g id="Group_205" data-name="Group 205" clip-path="url(#clip-path)"><path id="Path_832" data-name="Path 832" d="M15.28,38.932a4.345,4.345,0,1,1-5.419-2.9,4.346,4.346,0,0,1,5.419,2.9Z" transform="translate(-0.349 0.293)" fill="#7f6bf6"></path><path id="Path_833" data-name="Path 833" d="M42.551,40.194A4.347,4.347,0,1,1,38.2,35.847a4.347,4.347,0,0,1,4.347,4.347Z" transform="translate(-2.512 0.293)" fill="#7f6bf6"></path><path id="Path_834" data-name="Path 834" d="M45.709,23.694A49.6,49.6,0,0,0,41.348,17.3,8.221,8.221,0,0,0,35.1,14.244c-1.454-.018-2.88-.037-3.947-.037h-.009a5.377,5.377,0,0,0-3.515-4.03A5.107,5.107,0,0,0,26.341,9.9c-.129-.009-.294-.028-.488-.037a8.508,8.508,0,0,1-16.976-.12c-.12.009-.238.009-.359.009-.865.028-1.647.055-2.273.083-.414.018-.754.037-1.011.055-.038,0-.075.009-.111.009a4.272,4.272,0,0,0-.764.129A5.35,5.35,0,0,0,.237,14.778C.1,16.333.007,20.75.007,23.685S.1,31.027.246,32.592A5.373,5.373,0,0,0,4.02,37.247a6.617,6.617,0,0,1,13.166.46c1.96-.009,4.509-.046,6.468-.11,1.564.046,3.533.083,5.235.1a6.617,6.617,0,0,1,13.176-.368,5.366,5.366,0,0,0,4.012-4.739c.12-1.343.212-3.966.23-6.542v-.055a4.687,4.687,0,0,0-.6-2.3M41.918,24.9a1.2,1.2,0,0,1-.616.175H31.466V23.685c0-2.015-.046-4.739-.12-6.754,1.031,0,2.365.018,3.708.037a5.5,5.5,0,0,1,4.177,2.043,45.041,45.041,0,0,1,3.046,4.279,1.173,1.173,0,0,1-.359,1.61" transform="translate(0.192 2.378)" fill="#abffc7"></path><path id="Path_835" data-name="Path 835" d="M26.624,9.857a8.508,8.508,0,0,1-16.976-.12L11.1,9.71c.948-.018,1.914-.028,2.816-.037.258,0,.506-.009.745-.009.5-.009.966-.009,1.389-.009h.46c.4,0,.865,0,1.362.009.589,0,1.233,0,1.9.009.239,0,.488.009.736.009.35.009.7.009,1.049.018,1.61.028,3.193.074,4.315.12.276.018.534.028.745.037" transform="translate(-0.578 2.386)" fill="#5b3deb"></path><path id="Path_836" data-name="Path 836" d="M26.641,8.46c0,.212-.009.414-.019.626-.211-.009-.469-.018-.745-.037-1.123-.046-2.705-.092-4.315-.12-.35-.009-.7-.009-1.048-.018-.248,0-.5-.009-.737-.009-.672-.009-1.316-.009-1.9-.009-.5-.009-.965-.009-1.361-.009h-.46c-.424,0-.893,0-1.39.009-.238,0-.487.009-.744.009-.9.009-1.868.018-2.816.037l-1.454.028c-.009-.166-.018-.34-.018-.506C10.1-2.82,26.181-2.82,26.641,8.46" transform="translate(-0.577 3.157)" fill="#7f6bf6"></path><path id="Path_837" data-name="Path 837" d="M15.253,7.907l2.3,2.309,4.125-4.131a.61.61,0,0,1,.863.862L17.987,11.5a.611.611,0,0,1-.862,0L14.39,8.769a.61.61,0,0,1,.863-.862Z" transform="translate(-0.944 2.684)" fill="#fff"></path><path id="Path_838" data-name="Path 838" d="M29.442,9.144a.606.606,0,0,0,.607.607h1.823a.607.607,0,1,0,0-1.215H30.049a.6.6,0,0,0-.43.178.611.611,0,0,0-.178.43" transform="translate(-2.16 2.475)" fill="#7f6bf6"></path><path id="Path_839" data-name="Path 839" d="M28.8,5.458a.609.609,0,0,0,.779.363L31.293,5.2a.608.608,0,1,0-.416-1.142l-1.713.624a.607.607,0,0,0-.363.778Z" transform="translate(-2.106 2.836)" fill="#7f6bf6"></path><path id="Path_840" data-name="Path 840" d="M27.425,2.435a.606.606,0,0,0,.39-.143l1.4-1.171a.607.607,0,0,0-.78-.93l-1.4,1.171a.611.611,0,0,0,.39,1.073Z" transform="translate(-1.951 3.153)" fill="#7f6bf6"></path></g></svg> 