<?xml version="1.0" encoding="UTF-8"?> <svg xmlns="http://www.w3.org/2000/svg" xmlns:xlink="http://www.w3.org/1999/xlink" id="Out_for_delivery" data-name="Out for delivery" width="48" height="48" viewBox="0 0 48 48"><defs><clipPath id="clip-path"><rect id="Rectangle_72135" data-name="Rectangle 72135" width="48" height="47.066" fill="none"></rect></clipPath></defs><rect id="Rectangle_76" data-name="Rectangle 76" width="48" height="48" fill="none"></rect><g id="Group_235253" data-name="Group 235253" transform="translate(0 0)" clip-path="url(#clip-path)"><path id="Path_201161" data-name="Path 201161" d="M.5,4.042a2.532,2.532,0,0,1,4.066-3.02l5.781,7.783a2.547,2.547,0,0,1,.5,1.495V35.788H37.572a2.531,2.531,0,0,1,0,5.063h-27.3a4.919,4.919,0,1,1-5.959-3.587,4.849,4.849,0,0,1,1.165-.145h.279V11.152Z" transform="translate(0 0)" fill="#abffc7"></path><path id="Path_201162" data-name="Path 201162" d="M31.989,17.108v5.117h2.356v7.056A1.724,1.724,0,0,1,32.622,31H13.688a1.724,1.724,0,0,1-1.725-1.723V10.347a1.722,1.722,0,0,1,1.725-1.725H32.622a1.721,1.721,0,0,1,1.723,1.725v6.761Z" transform="translate(2.139 1.542)" fill="#abffc7"></path><rect id="Rectangle_72134" data-name="Rectangle 72134" width="2.356" height="5.117" transform="translate(34.128 18.65)" fill="#5b3deb"></rect><path id="Path_201163" data-name="Path 201163" d="M41.834,20.16,35.779,24.5a1.54,1.54,0,0,1-2.432-1.271V21.44h-2.4V16.323h2.4V14.535a1.484,1.484,0,0,1,.284-.872,1.541,1.541,0,0,1,2.148-.364l6.054,4.34v.029a1.489,1.489,0,0,1,.338.344,1.537,1.537,0,0,1-.338,2.148" transform="translate(5.533 2.327)" fill="#7f6bf6"></path><path id="Path_201164" data-name="Path 201164" d="M10.4,36.439A5.008,5.008,0,1,1,5.389,31.43,5.009,5.009,0,0,1,10.4,36.439" transform="translate(0.068 5.62)" fill="#5b3deb"></path></g></svg> 