<?xml version="1.0" encoding="UTF-8"?> <svg xmlns="http://www.w3.org/2000/svg" xmlns:xlink="http://www.w3.org/1999/xlink" id="Reached_Destination" data-name="Reached Destination" width="48" height="48" viewBox="0 0 48 48"><defs><clipPath id="clip-path"><rect id="Rectangle_72136" data-name="Rectangle 72136" width="43.952" height="47.208" fill="none"></rect></clipPath></defs><rect id="Rectangle_76" data-name="Rectangle 76" width="48" height="48" transform="translate(0 0)" fill="none"></rect><g id="Group_235254" data-name="Group 235254" transform="translate(2)" clip-path="url(#clip-path)"><path id="Path_201165" data-name="Path 201165" d="M22.687,12.192a10.482,10.482,0,0,1,1.6-5.6,10.971,10.971,0,0,1,2.7-2.923A16.457,16.457,0,0,0,16.318,0,16.671,16.671,0,0,0,0,16.657C0,29.6,12.872,44.439,15.983,46.973a1.071,1.071,0,0,0,1.354-.013c2.641-2.132,12.188-13.1,15.111-24.175a10.625,10.625,0,0,1-9.761-10.593M16.653,22.61a5.953,5.953,0,1,1,5.953-5.953,5.946,5.946,0,0,1-5.953,5.953" transform="translate(0 0.001)" fill="#abffc7"></path><path id="Path_201166" data-name="Path 201166" d="M26.449,1.162A10.525,10.525,0,0,0,20.12,3.267a16.767,16.767,0,0,1,6.329,13.516,23.387,23.387,0,0,1-.858,5.6c.282.027.577.04.858.04a10.633,10.633,0,1,0,0-21.266m4.224,16.05c-.5.027-.51-.013,0,0" transform="translate(6.857 0.397)" fill="#7f6bf6"></path><path id="Path_201167" data-name="Path 201167" d="M27.539,16.248a23.387,23.387,0,0,1-.858,5.6A10.625,10.625,0,0,1,16.92,11.26a10.482,10.482,0,0,1,1.6-5.6,10.971,10.971,0,0,1,2.7-2.923,16.767,16.767,0,0,1,6.329,13.516" transform="translate(5.767 0.932)" fill="#5b3deb"></path><path id="Path_201168" data-name="Path 201168" d="M31.792,7.663l-6.247,6.27a1.131,1.131,0,0,1-.775.331,1.041,1.041,0,0,1-.776-.331L20.85,10.786a1.112,1.112,0,0,1,1.573-1.573l2.348,2.349L30.242,6.09a1.1,1.1,0,0,1,1.573,0A1.118,1.118,0,0,1,31.792,7.663Z" transform="translate(6.993 1.963)" fill="#fff"></path></g></svg> 